<svg version="1.1" xmlns="http://www.w3.org/2000/svg" viewBox="0 0 799.20703125 640.21484375" width="799.20703125" height="640.21484375">
  <!-- svg-source:excalidraw -->
  
  <defs>
    <style>
      @font-face {
        font-family: "Virgil";
        src: url("https://excalidraw.com/Virgil.woff2");
      }
      @font-face {
        font-family: "Cascadia";
        src: url("https://excalidraw.com/Cascadia.woff2");
      }
    </style>
  </defs>
  <rect x="0" y="0" width="799.20703125" height="640.21484375" fill="#ffffff"></rect><g stroke-linecap="round" transform="translate(10 10) rotate(0 389.603515625 310.107421875)"><path d="M-0.29 0.79 C193.8 3.52, 387.83 3.45, 778.56 -0.42 M0.1 -0.28 C172.61 -1.17, 345.33 -1.6, 779.55 -0.24 M778.94 0.57 C778.84 235.2, 777.78 468.22, 779.31 619.48 M779.43 -0.32 C781.6 129.76, 781.54 259.63, 779.13 620.13 M779.45 620.03 C492.88 621.74, 208.84 621.25, -0.44 620.19 M779.12 620.54 C544.81 620.08, 309.64 620.3, -0.34 620.38 M0.08 619.69 C-1.63 428.13, -1.03 237.17, -0.32 0.38 M0.1 619.86 C1.47 415.4, 0.76 210.62, -0.01 -0.24" stroke="#000000" stroke-width="1" fill="none"></path></g><g stroke-linecap="round" transform="translate(55.3828125 386.546875) rotate(0 342.5 95.12890625)"><path d="M0 0 C0 0, 0 0, 0 0 M0 0 C0 0, 0 0, 0 0 M-0.21 6.99 C1.46 4.57, 3.36 2.52, 5.61 0.4 M-0.36 6.18 C1.47 4.05, 3.85 1.64, 4.92 0.4 M1.43 11.69 C2.61 8.66, 5.96 6.62, 9.56 -0.32 M-0.31 11.89 C4.58 7.19, 7.93 2.85, 10.92 -0.55 M-1.43 18.04 C5.27 12.38, 12.73 4.06, 16 0.79 M-0.42 17.94 C4.66 11.94, 10.33 6.34, 14.78 0.17 M0.88 24.34 C7.53 17.27, 13.78 6.6, 20.56 1.75 M0.11 23.91 C4.3 18.51, 10.06 12.56, 21.45 -0.8 M1.74 30.42 C10.34 17.33, 22.59 6.3, 28.08 2.21 M0.37 29.91 C6.47 23.13, 14.2 14.34, 26.49 -0.68 M0.05 34.97 C9.78 24.43, 22.14 11.17, 30.91 -0.81 M-0.6 36.46 C6.22 29.96, 12.12 22.18, 31.51 -0.54 M1.32 42.9 C12.61 30.41, 19.94 19.09, 38.17 2.18 M0.77 42.17 C10.3 29.81, 23.46 16.43, 37.65 0.03 M-1.54 48.94 C17.42 32.71, 30.1 13.18, 43.68 0.45 M-0.8 49.34 C15.85 29.94, 32.98 11.12, 43.4 0.21 M-0.87 53.51 C16.68 39.2, 30.16 20.86, 47.54 -1.71 M-0.21 54.07 C15.63 37.51, 29.95 19.78, 48.03 -0.62 M-0.79 62.1 C17.65 41.4, 31.54 22.71, 52.05 -1.8 M-0.62 61.65 C17.22 40.98, 35.98 20.69, 53.41 0.47 M-1.8 69.16 C21.58 42.69, 42.43 17.74, 59.3 0.23 M-0.21 66.66 C14.03 51.28, 26.95 35.78, 57.45 -0.64 M-0.06 73.66 C20.2 47.54, 45.02 23.9, 63.1 1.19 M0.49 72.62 C18.26 51.74, 35.51 31.41, 63.9 0.21 M1.43 78.61 C23.68 53.11, 50.28 22.76, 70.48 1.87 M-0.79 79.63 C21.49 55.46, 43.61 29.11, 67.8 0.91 M0.15 86.97 C29.02 53.26, 54.96 19.63, 73.75 -1.67 M1.19 84.45 C26.47 55.32, 53.9 23.52, 75.29 0.35 M-0.42 93.01 C29.18 57.56, 57.66 21.4, 79.95 1.15 M0.55 91.92 C24.14 65.78, 47.77 37.69, 79.03 -0.09 M0.56 98.23 C18.45 78.71, 37.7 56.03, 86.84 -1.35 M-0.49 97.03 C18.74 77.42, 37.94 56.32, 84.05 -1.26 M2 102.89 C30.1 69.62, 60.99 32.94, 88.46 0.17 M1.05 102.6 C35.14 63.02, 69.29 22.47, 89.15 -0.81 M1.74 109.52 C34.57 65.76, 75.41 24.89, 95.06 -0.71 M-0.46 108.9 C35.47 69.7, 69.15 29.46, 94.74 0.15 M-0.15 114.9 C33.34 79.26, 64.38 37.74, 102.65 1.13 M0 115.73 C32.55 77.7, 65.77 41.59, 100.24 0.48 M0.16 121.32 C29.77 88.49, 58.05 56.23, 104.97 1.54 M-0.57 121.83 C23.63 94, 46.88 65.75, 105.95 0.31 M1.57 128.57 C33.76 88.78, 67.39 47.46, 111.02 -1.61 M0.09 129.01 C35.21 87.55, 70.84 46.61, 110.44 0.48 M-1.16 133.46 C24.43 104.03, 54.04 70.94, 116.36 -0.46 M0.09 133.76 C38.55 93.02, 73.73 50.5, 115.71 0.63 M-0.6 141.3 C43.1 88.12, 91.61 37.09, 119.95 -1.61 M0.07 140.86 C32.46 100.93, 67.85 62.79, 121.94 0.83 M-1.34 145.9 C32.02 107.08, 62.92 70.65, 128.87 1.32 M0.45 145.55 C31.4 111.95, 60.99 76.67, 126.05 1.21 M1.36 152.81 C35.8 111.58, 71.11 71.11, 133.58 -0.25 M0.68 152.83 C29.11 119.08, 58.82 85.65, 132.96 0.06 M1.48 159.41 C44.91 107.28, 90.78 56.07, 137.96 1.16 M-1.02 157.91 C39.16 111.66, 78.3 66.56, 137.17 -0.57 M-1.21 166.14 C46.61 107.91, 95.22 54.01, 142.5 0.96 M-0.25 164.79 C32.7 127.04, 64.2 91.04, 143.87 -0.25 M-1.79 169.21 C34.12 130.27, 69.09 90.38, 149.64 1.05 M-0.22 171.6 C40.52 125.7, 80.19 79.46, 147.82 0.42 M-0.63 177.09 C48.99 123.16, 96.01 68.25, 154.01 1.16 M0.46 177.32 C44.04 125.57, 86.97 73.34, 153.31 0.18 M0.98 183.24 C61.41 113.9, 123.14 43.58, 160.15 -0.84 M-0.35 183.64 C43.68 133.87, 87.14 84.3, 158.89 0.85 M0.89 189.39 C56.64 123.85, 116.06 59.12, 162.89 -0.42 M0.08 189.21 C50.02 133.02, 98.44 77.02, 165.05 -0.88 M1.86 192.81 C63.09 118.9, 127.1 48.35, 167.82 0.51 M1.61 192.41 C47.08 139.87, 91.55 89.13, 169.51 0.27 M6.27 192.05 C43.83 151.59, 77.1 111.47, 175.52 -1.18 M7.63 192.07 C46.19 148.79, 85.99 103.6, 174.54 0.15 M12.63 194.18 C50.14 151.07, 86.66 107.45, 178.9 0.24 M13.22 193.27 C69.16 127.73, 124.89 63, 180.56 0.55 M17.92 191.56 C58.69 141.49, 102.49 92.93, 186.7 -1.82 M18.66 192.29 C78.47 122.94, 139.15 53.75, 185.5 -0.61 M24.86 191.27 C78.73 130.75, 132.47 66.22, 191.39 0.21 M23.79 193.19 C63.11 145.64, 104.49 99.84, 191.31 -0.56 M30.02 190.75 C71.96 143.16, 115.54 94.01, 196.04 0.37 M28.81 191.64 C70.73 145.28, 112.87 98.22, 196.83 0.23 M33.69 191.23 C90.22 130.48, 144.33 65.83, 201.6 -0.86 M34.45 193.32 C77.17 142.31, 119.8 92.07, 201.1 0.29 M40.91 192.78 C104.8 116.85, 169.97 45.25, 207.89 -1.53 M39.63 192.88 C99.79 123.4, 158.93 54.44, 207.48 0.35 M45.5 191.6 C84.59 145.12, 128.58 94.84, 210.6 -0.94 M44.76 192.37 C100.35 129.22, 156.27 65.1, 212.52 0.76 M50.45 191.2 C88.67 149.54, 127.28 105.21, 218.42 -1.38 M51.1 191.45 C89.16 146.93, 129.05 101.14, 218.07 -0.19 M55.23 193.26 C112 126.64, 169.82 62.45, 220.97 -1.11 M55.94 192.99 C107.07 130.22, 160.52 69.08, 221.78 -0.74 M60 192.6 C123.46 118.9, 185.66 45.7, 228.55 0.6 M61.64 191.61 C119.72 127.01, 176.94 60.09, 227.64 -0.59 M65.83 193.95 C104.35 149.95, 138.26 108.58, 233.58 0.86 M66.02 192.18 C127.06 122.9, 186.87 54.65, 233.2 -0.19 M72.45 190.73 C108.98 147.66, 146.68 106.99, 236.81 1.79 M71.34 191.93 C104.94 151.02, 140.44 110.35, 237.88 -0.13 M75.27 191.53 C134.68 126.15, 193.09 60.67, 244.34 0.86 M76.33 192.5 C124.74 135.75, 173.07 80.61, 243.09 0.71 M82.5 192.4 C144.16 120.59, 203.42 49.17, 248.46 0.65 M81.95 191.73 C129.93 140.42, 175.67 87.75, 249.24 0.38 M86.29 193.64 C149.65 119.66, 211.66 45.76, 253.9 1.33 M86.63 192.45 C129.13 143.46, 170.63 95.44, 254.26 -0.57 M92.82 191.54 C128.2 151.25, 162.44 110.34, 258.6 1.24 M92.04 192.7 C136.35 142.14, 181.7 91.49, 258.66 -0.07 M96.67 191.87 C160.68 121.07, 220.27 51.82, 264.45 -1.65 M98.34 192.88 C139.03 142.81, 183.06 93.43, 264.73 0.63 M103.74 192.69 C167.32 117.26, 232.32 44.64, 270.99 0.5 M102.81 193.2 C134.82 152.59, 169.42 115.09, 270.24 0.75 M108.94 190.84 C174 115.43, 237.78 40.66, 276.45 1.03 M108.09 192.18 C147.96 147.83, 185.98 103.27, 275.78 0.04 M112.57 191.71 C163.93 135.14, 211.63 78.16, 281.17 -1.29 M112.63 193.31 C148.39 154.37, 182.22 115.94, 280.04 0.97 M117.45 192.02 C169.53 133.23, 221.13 73, 285.4 -0.8 M119.03 192.73 C185.86 118.21, 251.85 41.22, 287.16 -0.98 M122.66 193.33 C186.69 120.47, 250.06 48.47, 292.69 -0.53 M124.42 192.91 C169.78 140.34, 215.9 86.38, 290.67 -0.52 M130.99 193.78 C165.15 150.69, 199.7 109.12, 298.02 -1.07 M129.48 192.81 C170.92 145.79, 210.34 99.67, 297.03 -0.35 M136.28 191.92 C175.66 144.25, 216.32 98.26, 300.91 0.01 M135.32 191.87 C188.66 129.78, 243.65 67.43, 301.51 0.78 M140.48 191.34 C203.45 118.92, 268.58 41.26, 306.4 -0.07 M141.09 191.47 C202.54 120.09, 264.99 48.49, 306.84 -0.05 M144.29 191.62 C202.22 122.88, 264.75 53.96, 312.39 0.93 M145.78 192.44 C205.49 124.5, 263.5 58.14, 312.03 0.43 M151.28 192.94 C204.01 129.95, 257.33 68.3, 317.05 -1.19 M150.68 191.73 C198.24 137.06, 247.52 80.11, 318.09 0.3 M155.23 193.48 C214.6 127.15, 274.34 58.9, 322.3 -0.34 M156.29 192.78 C195.07 147.87, 234.92 101.19, 323.34 -0.41 M160.55 190.79 C211.62 132.54, 262.11 74.47, 328.32 -1.3 M161.59 192.54 C226.48 121.22, 288.54 48.39, 329.1 0.21 M166.24 192.15 C213.26 138.89, 260.45 85.98, 333.77 0.22 M165.77 191.82 C227.34 121.27, 290.24 48.67, 333.38 0.18 M173.46 193.33 C214.74 143.1, 256.82 90.71, 340.04 -0.37 M172.36 191.99 C223.5 129.8, 276.32 69.36, 339.85 -0.02 M175.95 192.12 C242.43 118.06, 310.23 40.1, 344.98 0.24 M176.43 192.45 C217.43 144.79, 258.64 99.39, 345.01 0.03 M183.75 192.97 C229.72 137.03, 277.63 83.61, 349.71 -0.76 M183.22 192.14 C228.29 137.15, 276.25 82.95, 349.73 -0.24 M187.75 191.46 C250.42 120.56, 315.59 46.06, 355.64 0.72 M187.3 191.87 C222.15 152.55, 257.23 112.53, 354.62 -0.65 M193.13 191.88 C244.47 133.36, 293.89 77.42, 361.52 -0.51 M192.81 192.59 C251.46 125.61, 308.06 58.57, 360.13 -0.14 M196.85 191.63 C243.98 138.7, 288.38 86.9, 366.97 -0.5 M199.06 192.89 C254.83 126.81, 310.05 62.44, 365.18 0.72 M204.86 192.38 C237.7 150.53, 276.02 108.09, 369.51 1.44 M204.67 192.09 C247.37 142.89, 291.71 91.99, 370.53 0.35 M209.67 190.93 C273.5 119.71, 334.76 47.93, 375.23 0.99 M209.24 192.61 C275.81 118.54, 341.74 41.39, 376.43 -0.62 M213.32 191.13 C277.89 116.95, 342.66 43.16, 382.83 -0.95 M213.66 192.5 C263.15 133.72, 314.52 76.03, 381.12 -0.32 M221.2 190.98 C281.04 122.4, 340.28 53.25, 387.9 0.01 M220.23 192.11 C258.19 148.25, 297.33 104.53, 386.57 -0.56 M226.1 192.36 C280.11 130.21, 335.65 65.99, 392.76 -0.68 M224.74 192.57 C258.4 154.6, 292.89 114.7, 392.14 0.32 M231.21 193.53 C282.75 132.83, 335.8 72.8, 397.81 1.18 M229.65 191.63 C294.05 117.03, 360.12 42.7, 397.07 -0.72 M234.16 192.96 C299.36 116.25, 365.57 42.34, 401.75 -0.35 M236.1 192.44 C272 149.33, 308.79 108.61, 402.25 0.61 M240.96 190.73 C298.88 123.98, 354.08 59, 409.02 -0.48 M241.62 192.15 C293.51 130.28, 347.96 68.82, 407.85 -0.34 M246.8 192.38 C300.97 129.79, 357.07 68.29, 413.83 0.75 M246.65 192.28 C292.06 139.57, 338.79 87.27, 413.42 -0.31 M250 190.97 C307.88 127.19, 363.36 59.92, 417.37 -0.15 M252.25 192.19 C309.9 124.11, 368.24 57.75, 418.85 0.48 M255.44 193.44 C302.61 138.76, 348.66 84.62, 424.78 0.22 M256.94 192.99 C292.07 152.34, 328.68 110.84, 424.42 0.65 M262.63 193.06 C298.74 151.04, 333.78 112.6, 429.96 0.62 M262.52 192.63 C313.45 132.64, 363.77 73.33, 430.1 -0.83 M265.93 192.56 C302.18 150.54, 336.33 108.9, 435.18 -1 M267.61 193.01 C326.49 125.06, 386.19 56.51, 434.06 -0.71 M271.73 192.68 C318.91 138.88, 365.13 88.01, 439.2 0.39 M273.48 191.88 C327.96 128.62, 381.7 67.95, 440.03 0.38 M279.21 192.74 C328.76 133.41, 378.57 76.59, 443.87 1.35 M277.68 193.16 C333.05 130.03, 387.43 67.38, 444.46 0.22 M284.63 192.07 C322.89 145.09, 364.92 98.64, 451.97 1.05 M283 192.35 C316.86 154.57, 349.48 114.64, 450.38 -0.19 M287.98 193.85 C339.52 131.4, 389.6 74.75, 454.44 -1.3 M287.89 191.76 C325.83 149.44, 364.2 106.27, 456.16 0.76 M294.01 193.58 C336.21 144.86, 376.43 96.31, 460.5 -1.88 M293.84 192.34 C336.85 141.31, 380.13 91, 461.3 0.4 M299.45 192.63 C335.31 151.6, 371.5 110.52, 465.53 -1.26 M299 192.75 C345.61 141.5, 390.72 89.17, 466.51 0.56 M303.76 193.19 C342.32 149.7, 381.19 106.68, 470.81 0.92 M303.95 192.54 C355.08 135.15, 404.16 78.09, 470.73 0.12 M309.36 192.39 C345.51 150.05, 379.72 110.05, 477.3 -0.41 M310.21 192.77 C369.21 123.95, 429.19 53.71, 477.77 0.06 M316.08 193.45 C369.3 134.85, 420.91 75.69, 482.69 0.43 M314.61 192.77 C351.87 149.59, 388.04 108.63, 481.88 0.31 M321.45 193.29 C369.82 136.87, 417.3 81.11, 488.18 -0.56 M320.78 192.41 C368.17 138.24, 415.6 83.36, 487.41 0.46 M324.93 190.51 C366.13 144.54, 408.24 97.63, 492.26 -0.31 M325.47 192.01 C359.01 153.32, 393.26 113.19, 492.77 0.45 M331.29 192.38 C372.69 142.71, 413.14 95.79, 498.13 -0.17 M331.62 193.04 C387.29 126.53, 443.34 62.37, 497.78 0.46 M334.88 191.15 C401.81 117.37, 467.55 44.41, 504.27 1.11 M335.62 192.34 C393.38 127.07, 452.32 60.82, 503.77 0.03 M342.43 193.26 C386.47 137.35, 435.27 83.86, 508.62 -0.84 M342.09 191.94 C391.22 137.07, 439.39 80.14, 509.67 -0.45 M347.5 193.45 C395.08 135.22, 443.16 81.13, 515.3 0.71 M346.16 192.74 C382.44 149.97, 419.95 108.73, 513.68 0.94 M353.44 193.17 C387.03 151.27, 422.86 111.59, 519.4 -0.83 M351.59 191.98 C392.18 148.65, 430.67 103.33, 519.08 -0.45 M357.43 191.43 C410.8 128.76, 464.01 69.22, 523.42 1.09 M357.88 191.97 C407.78 134.78, 456.54 78.6, 524.58 0.95 M364.43 192.7 C405.69 143.74, 448.24 95.87, 531.75 -1.53 M362.81 191.96 C416.47 130.68, 470.61 67.95, 530.14 -0.14 M367.97 191.36 C411.7 145.59, 450.97 98.27, 534.71 1.71 M367.42 192.04 C425.46 125.8, 481.89 59.71, 535.38 0.22 M373.8 192.52 C410.96 148.28, 448.54 106.8, 541.96 -1 M373.64 191.43 C410.33 148.45, 447.91 104.89, 540.55 -1.03 M377.45 193.17 C419.2 145.45, 458.03 101.52, 547.05 -1.09 M377.96 192.45 C415.03 149.36, 451.74 106.93, 545.01 -0.35 M384.68 193.4 C442.47 124.5, 503.24 52.74, 551.12 -0.44 M383.64 192.31 C432.91 134.26, 483.47 76.97, 551.32 -0.61 M388.97 193.65 C437.77 136.15, 486.59 78.18, 556.61 -1.18 M389.49 191.88 C436.96 138.95, 485.37 84.04, 555.71 -0.7 M395.25 192.99 C443.68 136.61, 493.08 80.3, 561.8 -0.94 M394.02 192.42 C460.15 115.76, 525.41 39.75, 561.87 -0.47 M400.65 192.91 C463.93 118.96, 527.91 45.56, 567.52 1.21 M400.41 192.98 C460.9 121.18, 524.9 48.61, 566.54 -0.02 M405.22 192.28 C450.08 144.04, 495.49 91.99, 571.64 -0.25 M406.06 191.97 C447.01 143.22, 487.99 95.12, 573.3 0.19 M408.91 191.18 C461.34 131.34, 514.42 71.83, 578.99 -0.52 M410.82 192.7 C452.61 145.86, 492.43 100.23, 578.2 0.03 M415.8 192.34 C470.83 129.71, 522.45 67.52, 582.35 1.5 M416.24 191.93 C467.4 133.11, 520.24 73.03, 582.87 0.41 M421.38 192.01 C468.13 137.45, 517.8 83.39, 588.5 0.06 M420.85 191.97 C475.07 132.03, 526.56 72.6, 588.24 0.15 M426.5 191.12 C479.99 129.87, 535.27 70.03, 592.68 -1.24 M425.92 192.4 C477.76 133.38, 528.11 74.97, 593.08 1 M431.06 192.61 C480.52 136.59, 532.12 75.8, 598.27 -0.19 M432.32 192.48 C485.63 130.89, 538.88 70.73, 599.09 0.2 M438.33 193.15 C492.16 127.79, 546.99 67.46, 604.14 1.33 M436.54 192.62 C481.3 142.66, 524.2 94.02, 604.54 0.91 M442.13 193.48 C505.28 119.87, 569.54 48.21, 608.82 -1.13 M442.21 191.85 C487.64 138.22, 534.5 84.42, 610 -0.84 M446.69 194.09 C482.49 155.63, 515.43 116.67, 613.97 -1.11 M447.3 193.35 C495 138.72, 544.38 82.41, 615.29 0.73 M453.85 192.03 C510.48 128.66, 567.88 61.38, 618.93 0.77 M452.43 191.66 C504.66 131.79, 557.66 70.7, 620.28 0.03 M456.95 193.92 C495.86 151.28, 532.2 109.32, 624.14 0.67 M457.79 192.22 C492.46 151.12, 527.86 110.07, 625.08 0.19 M463.74 192.22 C495.4 154.92, 530.65 112.91, 632.15 -0.59 M463.34 192.65 C502.9 148.36, 540.79 104.48, 630.9 0.07 M467.54 191.74 C509.66 144.55, 552.94 94.26, 634.9 -0.17 M468.95 193.12 C521.88 129.69, 578.02 65.11, 635.31 -0.23 M474.08 191.64 C509.68 154.19, 546.23 111.3, 640.6 -1.49 M473.69 191.46 C529.38 127.51, 584.56 62.03, 641.25 0.55 M479.08 192.49 C512.48 151.67, 548.6 112.33, 648.04 -0.7 M479.16 191.87 C520.21 145.02, 562.17 95.79, 645.8 0.7 M485.43 191.23 C548.57 116.07, 613 42.88, 650.85 -1.38 M485.54 191.96 C520.75 149.12, 557.91 107.15, 652.41 0.26 M490.46 191.47 C548.05 123.09, 606.72 53.9, 657.13 -1.08 M490.1 193.11 C534.06 143.43, 576.61 92.58, 656.45 0.14 M496.64 192.01 C563.3 115.66, 629.09 39.1, 661.3 0.44 M496.15 192.31 C560.14 118.38, 624.16 45.62, 662.28 0.37 M498.85 193.82 C567.13 116.59, 635.5 40.65, 666.98 -1.41 M500.26 192.55 C560.28 126.42, 618.23 58.43, 667.19 0.84 M504.82 191.88 C551.2 140.2, 597.04 87.99, 671.84 -1.73 M506.07 191.42 C540.74 153.44, 574.83 115.56, 673.63 -0.44 M512.65 191.83 C551.95 142.63, 592.95 97.57, 677.45 1.57 M511.44 193.12 C577.98 115.43, 643.58 39.94, 677.99 -0.15 M515.09 192.07 C562.86 137.22, 613.6 82.02, 683.89 -0.53 M517.49 192.2 C575.33 123.46, 635.89 55.48, 684.46 -1.1 M522.37 194.05 C555.21 153.49, 591.26 113.72, 687.94 3.8 M522.21 192.05 C584.19 118.56, 648.51 45.1, 686.94 2.08 M527.61 190.67 C574.85 139.06, 620.5 83.13, 686.69 6.82 M527.84 191.85 C562.78 150.89, 597.58 110.46, 687.2 8.52 M532.97 192.99 C594.27 122.53, 655.31 50.02, 688.33 12.96 M532.87 192.15 C591.6 126.7, 648.78 58.23, 687.57 13.63 M537.55 192.43 C593.48 128.8, 648.54 65.39, 688.74 20.19 M537.77 191.54 C577.18 145.79, 616.69 100.6, 687.1 19.97 M544.5 190.78 C592.64 135.06, 642.73 79.72, 688.28 26.2 M543.71 192.19 C592.02 136.36, 641.19 79.1, 686.85 25.64 M548.13 192.32 C601.31 132.4, 655 70.45, 685.32 31.02 M548.04 191.63 C581.08 155.74, 614.2 116.98, 686.57 31.92 M555.16 193.56 C604.55 135.24, 650.89 79.86, 687.13 37.23 M553.38 191.6 C596.02 141.57, 638.61 92.78, 686.65 38.25 M557.26 191.98 C587.33 160.87, 615.95 128.44, 685.53 46.36 M559.61 191.54 C584.87 161.76, 611.15 131.66, 686.68 45.7 M564.68 193.68 C591.92 162.86, 618.75 133.43, 685.73 50.11 M564.06 192.47 C599.72 152.22, 634.15 110.7, 687.27 50.63 M568.1 194.25 C614.69 140.14, 661.08 90.35, 688.76 57.4 M569.06 192.37 C605.17 152.15, 641.44 110.8, 686.71 56.41 M574.35 193.68 C600.99 162.53, 623.77 133.13, 686.76 62.76 M574.53 192.28 C604.1 157.1, 633.29 123.59, 686.61 63.47 M579.45 191.95 C615.53 150.97, 654.01 108.14, 687.76 69.75 M580.73 191.78 C620.33 146.29, 661.39 100.49, 686.48 68.89 M583.88 193.05 C618.84 151.21, 652.32 114.93, 688.43 74.44 M585.39 193.14 C625.19 147.26, 666.33 99.7, 686.32 76.13 M590.12 192.23 C613.45 169.78, 634.16 144.97, 689.43 81.38 M591.14 192.68 C625.35 152.28, 662.12 110.99, 687.94 81.01 M594.65 191.25 C624.86 158.79, 651.66 129.77, 688.92 86.91 M595.35 192.17 C626.75 157.73, 656.89 125.52, 688.23 87.22 M601.42 193.62 C627.86 162.18, 654.03 133.98, 685.87 95.12 M601.52 192.17 C625.26 163.29, 649.34 133.58, 686.45 94.34 M605.9 191.86 C630.59 163.98, 656.44 135.65, 688.9 101.34 M607.16 191.44 C635.71 157.92, 665.39 123.51, 686.86 99.52 M612.54 190.76 C634.09 163.74, 660.54 136.39, 689.01 107.68 M611.16 192.29 C631.92 168.4, 654.08 143.88, 687.39 105.12 M618.78 190.6 C638.3 167.29, 659.68 143.79, 686.95 110.99 M617.65 191.96 C641.87 164.58, 663.95 138.06, 686.84 110.77 M620.55 194.44 C648.01 164.75, 671.2 132.37, 686.71 118.15 M621.42 192 C644.35 166.29, 665.81 139.79, 688.26 118.8 M628.28 191.31 C642.3 176.8, 656.06 159.11, 686.86 126.02 M627.72 191.66 C648.35 167.76, 668.9 144.21, 686.17 124.36 M632.39 191.54 C644.31 176.42, 659.98 161.32, 689.34 128.99 M633.71 193.22 C653.46 167.75, 675.71 142.5, 687.24 129.01 M639.29 193.95 C655.01 174.47, 670.04 154.99, 688.25 134.45 M638.3 191.42 C648.69 180.9, 659.97 168.29, 686.9 136.39 M644.88 193.11 C659.76 172.11, 677.93 150.76, 689.17 142.8 M643.53 192.79 C654.28 180.29, 664.12 168.88, 686.6 142.31 M650.56 190.6 C664.48 178, 678.65 159.07, 686.68 146.69 M648.42 193.06 C659.08 181.82, 667.8 170.76, 687.17 148.15 M652.72 194.28 C659.25 183.65, 665.71 178.57, 687.67 155.04 M654.41 192.5 C665.75 178.33, 678.59 164.81, 688.02 154.96 M658.73 193.48 C668.2 184.12, 675.24 172.96, 688.19 160.5 M659.15 191.33 C666.26 186.17, 671.25 178.25, 687.82 161.1 M664.47 194.33 C673.84 181.18, 682.52 171.48, 686.16 167.03 M663.96 193.07 C673.4 183.59, 682.26 172.61, 687.18 165.88 M670.3 190.93 C677.91 182.8, 683.25 179, 688.74 173.8 M669.63 191.92 C675.13 187.11, 677 183.14, 687.79 171.66 M674.67 192.64 C678.53 186.4, 682.82 183.54, 686 178.53 M675.81 192.17 C680.38 186.85, 684.53 183.45, 687.83 179.18 M680.74 192.44 C682.07 190.47, 684.15 187.21, 686.27 185.25 M680.44 192.46 C681.62 190.46, 683.76 189.12, 687.22 185.55" stroke="#fab005" stroke-width="0.5" fill="none"></path><path d="M-0.72 0.22 C169.91 0.82, 341.06 0.78, 684.29 0.61 M-0.36 0.14 C158.49 2.38, 317.37 1.93, 684.62 -0.39 M683 0.84 C684.69 62.76, 684.65 121.64, 684.7 191.63 M685.62 0.08 C686.96 67.51, 686.51 134.2, 684.97 189.36 M684.85 189.6 C492.55 191.64, 300.07 192.03, -0.5 190.14 M684.74 190.3 C536.17 188.06, 388.08 187.7, 0.35 190.65 M-0.04 190.02 C-0.74 115.75, -2.23 40.25, -0.12 -0.53 M-0.33 190.09 C-1.52 131.56, -2.29 73.07, 0.64 0.6" stroke="#000000" stroke-width="1" fill="none"></path></g><g transform="translate(60.3828125 456.67578125) rotate(0 337.5 25)"><text x="337.5" y="18" font-family="Virgil, Segoe UI Emoji" font-size="20px" fill="#000000" text-anchor="middle" style="white-space: pre;" direction="ltr">DATA</text><text x="337.5" y="43" font-family="Virgil, Segoe UI Emoji" font-size="20px" fill="#000000" text-anchor="middle" style="white-space: pre;" direction="ltr">(Digital Asset)</text></g><g stroke-linecap="round" transform="translate(54.8515625 110.9140625) rotate(0 117.55859375 121.673828125)"><path d="M0 0 C0 0, 0 0, 0 0 M0 0 C0 0, 0 0, 0 0 M0.4 6.25 C1.71 4.6, 2.52 2.85, 5.12 1.08 M-0.04 6.27 C1.68 4.34, 2.96 2.24, 4.85 0.67 M1.51 10.7 C3.95 8.25, 5.07 5.28, 9.6 1.19 M0.1 11.7 C4 8.12, 8.42 3.33, 11.02 -0.56 M0.03 20.2 C5.1 13.55, 10.94 6.74, 15 -0.33 M0.68 17.86 C3.5 14.73, 7.38 10.91, 16.46 0.3 M0.66 24.38 C6.2 20.29, 10.63 13.05, 21.08 -0.64 M0.87 24.48 C5.28 18.04, 9.62 12.31, 20.78 -0.5 M-0.26 29.79 C5.25 23.87, 11.67 15.43, 26.38 0.5 M-0.27 29.8 C6.51 21.92, 12.67 14.96, 26.02 -0.6 M-0.17 37.28 C7.6 28.89, 15.98 21.01, 33.69 -0.47 M-0.24 36.95 C6.52 29.09, 13.75 19.65, 31.91 -1.08 M-1.12 41.25 C11.42 28.14, 21.14 17.3, 35.28 0.67 M-0.36 43.51 C10.5 30.24, 22 18.12, 37.3 0.79 M-1.02 49.08 C13.74 32.47, 29.46 16.97, 40.92 -0.88 M0.8 49.11 C16.11 31.59, 33.1 12.43, 42.03 -1.09 M1.72 53.17 C10.55 40.35, 23.65 31.27, 47.38 0.35 M0.69 53.56 C13.5 38.19, 26.77 23.19, 48.33 -0.25 M1.66 62.18 C21 38.77, 43.15 14.61, 54.41 -0.68 M0.13 60.25 C13.52 44.23, 29.65 26.86, 52.69 -0.3 M1.73 69.03 C19.36 42.59, 40.32 17.83, 58.25 -0.21 M0.54 68.21 C19.36 45.23, 38.8 20.63, 57.23 0.49 M1.93 74.36 C20.01 50.95, 33.9 33.29, 63.65 1.49 M0.59 73.83 C24.45 43.38, 50.35 16.31, 63.55 0.49 M0.22 78.14 C26.67 46.74, 52.53 19.29, 69.34 -0.59 M-1.12 80.4 C26.87 48.65, 53.91 18.47, 68.16 0.18 M-0.26 83.52 C19.55 60.37, 41.37 40.25, 76.03 -0.93 M1.12 84.27 C20.43 62.01, 42.4 37.48, 74.3 -0.58 M-1.58 92.23 C22.31 66.08, 43.8 41.46, 79.96 -0.27 M-0.48 92.24 C24.38 62.03, 50.01 33.88, 79.35 0.91 M0.25 96.44 C19.09 73.61, 42.36 50.68, 84.82 1.66 M0.04 97.67 C32.07 59.4, 65.45 21.4, 84.7 -0.47 M0.09 102.38 C29.38 67.81, 60.33 33.63, 91.31 1.4 M0.97 104.07 C21.18 80.01, 42.16 55.83, 89.11 -0.28 M0.46 109.76 C27.08 75.47, 56.88 45.69, 97.13 -1.02 M-0.31 110.8 C26.19 79.11, 51.36 49.57, 96.59 -1.16 M-1.14 115.81 C33.43 79.52, 65.26 41.86, 102.45 1.19 M-0.2 115.12 C22.19 90.93, 44.7 64.05, 99.78 0.58 M1.29 122.51 C32.94 81.23, 69.57 43.62, 105.97 0.85 M0.54 121.64 C40.36 76.81, 79.19 29.66, 105.84 0.29 M1.58 128.6 C42.5 82.03, 82.69 33.76, 110.34 0.01 M0 128.36 C44.22 78.04, 88.34 26.76, 111.79 0.4 M-1.83 133.09 C25.64 104.51, 48.61 77.76, 117.57 2 M-0.25 134.35 C24.7 104.17, 50.89 74.2, 115.75 0.51 M-1.07 138.72 C31.21 106.63, 60.88 68.2, 121.78 -1.11 M-0.44 139.38 C25.94 113.85, 50.82 84.44, 121.61 -0.98 M0.44 144.02 C35.75 103.81, 71.75 63.13, 126 -0.99 M0.56 146.02 C30.98 109.94, 62.73 73.93, 127.65 0.8 M1.37 150.7 C39.68 101.8, 84.04 55.67, 133.38 -0.94 M0.56 152.96 C47.73 98.2, 93.77 42.78, 131.87 -0.69 M-1.25 158.73 C32.23 119.47, 69.76 79.89, 137.26 -0.99 M-0.39 159.38 C51.1 100.13, 101.17 42.49, 137.02 -0.25 M-1.29 163.77 C48.1 109.62, 95.51 53.97, 143.89 1.3 M0 164.31 C41.33 118.03, 81.15 72.04, 142.97 0.65 M-0.79 170.5 C35.75 130.94, 70.24 89.08, 147.82 -0.1 M-0.42 170.2 C30.62 135.25, 60.98 99.09, 147.85 -0.11 M0.76 177.81 C42.64 126.5, 88.14 76.3, 153.77 -0.07 M0.49 177.01 C43.01 123.54, 88.59 72.85, 153.74 0.2 M0.13 182.85 C54.84 118.43, 112.71 51.58, 159.78 0.41 M-0.72 182.67 C43.07 135.3, 85.57 85.95, 158.46 0.77 M0.6 190.17 C54.47 126.62, 108.26 64.55, 165 -0.22 M0.43 189.15 C65.38 114.8, 129.8 39.94, 164.79 -0.58 M-1.08 194.95 C59.33 128.95, 115.9 58.95, 170.01 -0.54 M-0.07 195.69 C62.45 123.87, 124.07 53.29, 169.07 -0.44 M-1.28 202.8 C48.18 147.71, 97.38 92.32, 174.43 -1.11 M0.32 200.78 C50.15 144.95, 98.7 88.13, 175.16 0.34 M0.98 206.15 C61.91 133.19, 126.23 61.85, 180.32 -0.71 M-0.47 207.49 C68.09 128.83, 134.7 50.81, 179.95 0.73 M1.28 213.46 C53.68 150.54, 109.47 85.78, 186.87 -1.31 M0.41 213.19 C66.23 138.86, 131.33 64.49, 185.56 -0.65 M-0.25 219.77 C59.74 152.38, 121.11 81.42, 190.71 -1.05 M0.22 219.49 C60.41 152.49, 118.45 83.65, 191.34 -0.13 M0.84 225.56 C80.95 135.8, 158.4 45.39, 196.08 0.52 M0.04 226.1 C57.77 157.59, 115.32 91.46, 196.66 -0.12 M-1.42 230.8 C74.46 143.48, 150.92 57.78, 202.53 0.6 M0.02 231.43 C48.3 175.3, 97.64 119.2, 200.64 -0.35 M0.81 236.44 C80.79 144.56, 161.34 52.12, 206.54 -0.09 M0.11 237.05 C59.66 166.1, 120.92 96.29, 206.25 -0.1 M-0.12 242.63 C68.22 168.35, 132.94 90.98, 212.67 0.61 M-0.37 244.41 C77.28 155.75, 152.65 69.1, 212.59 0.2 M5.21 243.32 C63.02 177.02, 120.82 111.63, 217.89 -1.43 M5.31 244.02 C53.52 189.09, 100.73 134.91, 217.95 -0.35 M9.98 242.85 C69.77 175.71, 127.75 111.21, 222.41 1.35 M10.77 243.24 C77.59 165.25, 145.74 87.4, 221.92 -0.4 M16.9 243.85 C75.06 177.41, 131.74 111.75, 228.45 0.84 M16.56 243.13 C66.46 183.33, 119.56 123.42, 228.29 -0.02 M21.25 243.41 C70.78 186.3, 118.96 128.73, 234.13 -0.43 M21.46 243.11 C85.88 169.83, 149.57 96.68, 233.26 -0.63 M26.44 244.68 C68 193.54, 110.58 146.53, 235.87 2.3 M26.8 242.82 C76.12 187.17, 123.3 131.63, 237.52 1.88 M32.28 244.24 C107.02 157.42, 182.75 72.64, 236.66 8 M31.63 243.6 C106.08 160, 179.45 74.13, 237.76 7.87 M36.5 243.68 C98.32 175.26, 158.33 106.73, 237.3 15.09 M37.02 243.35 C104.56 166.65, 171.85 89.79, 237.16 13.64 M42.92 242.48 C94.42 185.1, 143.41 127.26, 237.08 21.36 M42.69 243.56 C91.7 187.32, 139.02 131.08, 236.5 20.05 M48.45 244.48 C86.38 196.89, 124.95 154.21, 237.94 25.48 M48.35 242.82 C86.25 199.89, 123.89 157.47, 236.58 25.47 M54.44 244.09 C105.14 182.85, 159.34 119.95, 235.62 33.32 M53.24 243.94 C91.55 199.71, 130.74 153.68, 236.74 31.99 M59.09 241.97 C118.45 172.23, 180.22 101.32, 238.53 38.51 M59.01 242.86 C125.35 165.07, 192.73 85.95, 236.83 38.15 M63.41 243.31 C109.46 188.47, 157.39 132.9, 236.94 44.46 M63.3 243.36 C133.64 163.78, 202.56 85.06, 237.05 44.47 M69.48 243.33 C134.98 170.13, 198.95 99.54, 237.55 51.09 M70.26 242.88 C121.43 183.78, 174.11 125.32, 236.86 50.82 M74.03 243.49 C140.21 168.14, 204.82 96.71, 238.75 57.94 M74.61 244.32 C113.95 200.27, 152.82 156.46, 236.56 56.63 M79.09 243.52 C137.3 176.47, 193.23 113.42, 236.91 64.13 M80.23 242.99 C129.57 185.13, 179.26 127.93, 237.6 62.6 M85.9 245.18 C124.91 196.59, 168.06 151.22, 236.67 67.29 M85.79 243.66 C123.64 198.76, 162.05 153.83, 237.76 68.26 M91.71 244.55 C139.68 185.82, 189.35 127.76, 238.23 74.3 M89.66 243.14 C126.21 204.04, 160.13 165.1, 236.28 74.06 M96.69 242.1 C137.96 194.6, 180.91 145, 237.18 80.04 M95.33 243.87 C135.61 197.88, 175.04 153.19, 237.59 80.73 M101.12 242.87 C128.93 212.15, 156.96 180.95, 238.66 87.8 M101.5 243.54 C150.47 184.57, 202.53 125.23, 237.69 87.57 M105.34 241.5 C148.28 197.61, 190.59 150.86, 236.99 91.47 M107.09 243.17 C135.83 211.53, 165.01 177.16, 236.48 94.15 M110.85 244.46 C138.98 216.52, 162.99 185.22, 236.63 100.91 M111.51 244.08 C155.9 192.88, 199.48 141, 238.19 99.4 M116.52 245.19 C157.89 196.46, 198.67 149.39, 235.51 107.11 M117.76 244.36 C152.48 203.84, 189.17 161.79, 236.69 106.1 M123.88 243.76 C150.71 212.58, 175.09 182.77, 235.43 113.46 M121.26 244.64 C153.7 207.16, 185.63 169.88, 236.53 112.51 M129.2 241.99 C149.69 215.73, 173.27 187.71, 239.08 119.36 M127.79 243.32 C150.89 218.07, 171.86 192.41, 237.61 118.07 M133.01 242.73 C172.48 196.48, 211.93 151.32, 238.76 123.72 M132.88 244.01 C168.5 202.34, 205.37 161.13, 237.89 123.02 M140.07 245.06 C176.53 200.04, 211.47 159.91, 235.81 128.94 M137.7 242.84 C172.18 204.07, 206.42 167.46, 236.57 128.54 M144.88 243.59 C170.79 209.76, 201.28 177.02, 238.02 136.21 M142.43 243.93 C167.54 217.28, 191.06 189.06, 237.48 136.14 M147.7 243.67 C170.78 218.46, 191.3 195.19, 235.06 141.45 M148.12 242.64 C183.45 204.39, 218.66 163.52, 236.29 141.74 M152 244.68 C183.14 208.38, 213.49 175.3, 235.17 146.84 M154.06 243.08 C185.99 207.85, 217.85 169.4, 237.2 147.3 M160.52 243.22 C182.62 216.98, 206.87 189.93, 238.02 152.34 M159.69 243.38 C187.01 211.89, 214.33 181.22, 237.54 154.51 M164.74 244.45 C182.66 224.91, 194.8 210.35, 238.01 159.63 M163.96 243.11 C181.48 224.67, 197.08 205.33, 237.04 160.83 M168.87 245.23 C197.58 211.85, 224.18 183.26, 237.79 167.44 M169.17 242.66 C190.51 220.27, 210.66 197, 237.18 166.93 M175.36 245.49 C198.26 216.04, 221.63 190.69, 235.59 171.48 M174.4 244.58 C196.8 219.15, 218.93 193.62, 236.4 172.77 M180.93 243.36 C204.67 219.11, 223.23 194.49, 238 179.98 M181.34 243 C191.67 229.12, 203.91 217.54, 236.77 179.25 M186 242.52 C206.94 221.54, 226.28 198.93, 236.78 185.17 M185.7 242.98 C196.66 230.91, 208.84 216.06, 236.67 183.84 M190.76 243.38 C205.55 226.79, 223.92 205.53, 236.16 191.29 M191.06 243.89 C206.63 226.12, 221.4 208.83, 237.97 190.67 M196.65 242.38 C209.9 228.97, 221.92 210.2, 238.38 197.84 M196.25 242.77 C204.86 233.62, 213.59 223.49, 237.39 195.96 M201.67 243.95 C214.18 228.63, 223.7 215.02, 235 203.59 M200.59 244.48 C209.14 234.07, 217.9 225.52, 235.8 204.07 M205.2 244.03 C218.97 230.17, 231.46 217.44, 235.7 210.03 M206.5 243.3 C218.44 229.48, 230.89 217.19, 236.79 209.21 M212.77 245.58 C218.57 234.07, 226.03 226.61, 237.07 216.95 M212.22 244.61 C221.32 234.13, 231.29 221.8, 237.35 215 M219.41 242.55 C220.64 236.95, 227.29 232.73, 237.93 222.37 M216.97 242.92 C223.51 236.56, 227.2 230.56, 237.14 220.63 M223.11 243.17 C227.51 241.18, 231.09 235.46, 236.86 225.85 M222.35 243.33 C225.93 238.4, 229.97 233.7, 237.79 228.22 M228.67 244.57 C229.97 240.61, 233.96 237.14, 235.95 232.85 M228.23 243.07 C231.18 240.03, 233.21 237.05, 236.38 233.19 M233.55 243.59 C234.65 242.61, 235.89 240.8, 236.64 239.55 M233.49 243.84 C234.42 242.68, 235.2 241.7, 237.13 239.11" stroke="#be4bdb" stroke-width="0.5" fill="none"></path><path d="M0.6 -0.19 C72.35 1.47, 144.67 1.96, 234.41 0.65 M0.15 0.21 C72.13 0.66, 144.19 0.71, 235.1 -0.81 M234.81 0.3 C233.34 67.04, 234.19 133.28, 236.26 244.36 M234.77 0.67 C234.65 92.19, 234.53 186.24, 235.82 242.9 M234.7 242.73 C178.11 245.08, 119.3 245.57, 1.22 244.18 M235.38 243.97 C179.44 243.29, 124.86 243.54, -0.79 243.39 M-0.27 242.16 C1.97 175.98, 0.75 112.26, 0.84 -0.25 M0.7 242.85 C-0.44 162.62, 0.49 81.84, 0.22 0.07" stroke="#000000" stroke-width="1" fill="none"></path></g><g transform="translate(78.390625 130.1171875) rotate(0 59.5 75)"><text x="0" y="18" font-family="Virgil, Segoe UI Emoji" font-size="20px" fill="#000000" text-anchor="start" style="white-space: pre;" direction="ltr">MetaData</text><text x="0" y="43" font-family="Virgil, Segoe UI Emoji" font-size="20px" fill="#000000" text-anchor="start" style="white-space: pre;" direction="ltr"></text><text x="0" y="68" font-family="Virgil, Segoe UI Emoji" font-size="20px" fill="#000000" text-anchor="start" style="white-space: pre;" direction="ltr">Tags:</text><text x="0" y="93" font-family="Virgil, Segoe UI Emoji" font-size="20px" fill="#000000" text-anchor="start" style="white-space: pre;" direction="ltr">  Key: Value</text><text x="0" y="118" font-family="Virgil, Segoe UI Emoji" font-size="20px" fill="#000000" text-anchor="start" style="white-space: pre;" direction="ltr">  Key: Value</text><text x="0" y="143" font-family="Virgil, Segoe UI Emoji" font-size="20px" fill="#000000" text-anchor="start" style="white-space: pre;" direction="ltr">  ...</text></g><g stroke-linecap="round" transform="translate(307.9609375 109.9140625) rotate(0 106.353515625 122.50390625)"><path d="M0 0 C0 0, 0 0, 0 0 M0 0 C0 0, 0 0, 0 0 M0.51 6.55 C1.61 3.83, 2.73 2.59, 4.42 0.86 M-0.5 6.41 C2.1 4.29, 3.75 2.08, 5.23 0.66 M1.39 11.98 C4.16 6.54, 6.49 3.74, 11.46 -0.15 M0.52 12.41 C3.61 9.58, 5.2 5.55, 10.47 -0.73 M0.26 19.05 C6.3 14.55, 9.29 9.11, 14.54 -1.38 M-0.94 18.23 C4 15.37, 7.25 9.92, 14.63 0.61 M-0.33 24.41 C7.12 18.46, 10.61 8.14, 21.34 1.67 M-0.61 24.06 C6.08 16.57, 11.34 9.64, 20.36 0.79 M-0.35 28.55 C6.74 22.32, 16.96 9.79, 25.85 1.53 M-0.97 30.72 C6 22.6, 11.93 15.2, 26.71 0.61 M-0.88 37.58 C13.82 21.3, 22.85 10.74, 32.98 0.37 M-0.05 36.53 C8.36 26.68, 18.91 15.18, 32.32 -0.43 M-0.46 44.23 C11.29 30.24, 23.73 13.43, 38.76 -1.27 M0.05 42.33 C10.91 29.54, 20.85 17.39, 37.53 0.3 M0.13 48.86 C12.28 34.02, 22.29 19.92, 40.89 0.25 M0.57 48.34 C11.3 35.16, 22.67 21.79, 42.99 -0.83 M-0.23 52.91 C18.76 36.26, 33.68 15.39, 46.68 0.46 M0.07 55.53 C10.59 43.22, 19.56 31.4, 47.77 0.95 M0.95 59.74 C19.65 40.14, 40.71 13.54, 51.56 -0.51 M0.52 60.26 C20.63 37.06, 43.05 12.99, 54 -0.62 M-0.35 68.03 C21.17 40.85, 44.73 17.42, 59.12 -1.14 M-0.7 67.63 C12.42 53.29, 23.56 37.88, 59 -0.12 M0.6 72.85 C18.79 51.22, 37.47 32.18, 63.56 -1.83 M0.62 72.37 C16.74 54.1, 32.83 35.84, 63.91 0.07 M0.58 78.65 C17.76 58.79, 35.97 39.18, 69.74 -0.07 M-1.12 79.72 C22.69 51.84, 47.59 24.13, 67.78 0.49 M2.24 84.72 C25.83 55.29, 53.93 22.62, 75.62 -1.77 M0.68 84.8 C18.04 63.45, 37.34 43.94, 74.23 -0.86 M-1.89 89.98 C23.14 63.5, 47.35 40.39, 80.31 -0.44 M0.91 91.23 C22.33 65.99, 43.89 42, 79.56 0.21 M0.47 98.46 C22.67 73.36, 44.08 48.58, 86.56 -0.51 M0.75 98.51 C31.99 59.98, 62.42 23.59, 85.4 0.59 M0.59 104.32 C32.98 68.41, 64.48 32.95, 88.74 -0.5 M1.06 102.89 C20.47 80.66, 40.5 57.63, 90.77 0.58 M0.02 108.83 C27.61 79.18, 56.58 44.62, 95.35 -0.35 M-0.2 110.26 C22.92 82.48, 46.6 56.96, 94.79 0.45 M0.47 113.87 C33.19 76.06, 69.66 35.04, 101.04 -0.62 M-0.02 115.49 C26.61 84.09, 55.04 52.52, 100.74 -0.85 M-0.24 122.71 C29.29 87.22, 59.36 55.05, 105.08 -1.74 M-0.21 121.11 C28.85 90.66, 55.77 56.99, 106.72 -1.17 M1.69 129.46 C33.43 91.44, 64.54 50.51, 111.38 0.71 M0.57 128.64 C31.84 90.28, 63.97 53.53, 111.77 -0.43 M-0.68 132.11 C39.95 85.79, 82.4 39.51, 114.31 1.53 M0.23 133.47 C29.96 99.45, 59.67 63.97, 115.8 0.66 M-1.73 141.52 C42.36 92, 81.5 46.24, 122.02 -1.13 M0.64 139.76 C41.77 91.55, 85.21 44.09, 121.06 -0.46 M-1.5 146.91 C42.95 98.17, 85.58 46.91, 127.68 -0.73 M-0.4 145.78 C33.16 109.96, 66.03 72.31, 127.51 0.65 M-1.44 152.6 C36.16 111.85, 69.53 73.84, 131.48 -0.8 M0.88 152.55 C40.8 103.79, 81.47 56.5, 132.76 0.73 M0.44 159.52 C42.45 108.86, 89.22 58.46, 136.18 1.29 M0.56 159.24 C38.89 113.58, 77.73 68.75, 138.24 -0.09 M-0.83 162.71 C55.91 101.43, 108.59 38.36, 142.1 0.48 M0 164.17 C41.2 117.97, 81.35 72.26, 143.93 -0.68 M-1.08 170.42 C46.76 118.7, 91.75 68.8, 147.06 -0.77 M-0.81 171.07 C58.28 103.54, 116.02 37.83, 148.31 0.59 M1.1 176.58 C42.71 128.09, 86.88 74.77, 152.62 0.19 M0.83 175.68 C52.18 113.93, 105.26 52.76, 153 0.54 M0.56 183.29 C60.72 112.66, 121.44 43.72, 159.79 0.97 M-0.46 182.64 C34.03 143.46, 66.06 105.78, 158.57 -0.45 M1.29 190.88 C43.59 137.27, 88.58 87.36, 165.31 0.8 M-0.5 188.82 C32.21 150.48, 66.02 113.26, 164.25 -0.78 M-1.14 195.85 C58.25 126.88, 120.12 55.55, 170.85 -1.22 M0.04 194.54 C66.11 118.69, 132.45 41.92, 168.94 0.57 M-0.96 202.01 C56.7 138.84, 114.04 73.16, 175.94 -0.31 M-0.01 201.37 C61.14 130.3, 123.84 59.28, 175.8 0.34 M0.66 207.54 C50.82 145.82, 101.64 87.12, 180.37 -0.21 M0.02 207.34 C38.55 165.13, 75.6 122.8, 180.11 0.75 M1.23 213.39 C58.02 145.83, 115.2 78.2, 187.02 -0.98 M0.1 213.55 C56.7 147.96, 114.39 81.81, 185.23 -0.86 M-0.63 220.05 C70.66 137.76, 141.25 57.84, 191.57 -0.39 M0.43 219.32 C59.65 154.32, 118.43 85.39, 190.36 0.63 M-0.26 225.8 C43.98 173.9, 89.78 123.15, 194.92 -0.87 M0.65 224.9 C77.13 136.33, 154.23 47.36, 196.99 0.37 M-0.11 231.15 C50.5 171.1, 103.78 112.62, 201.54 -1.32 M0.35 231.21 C72.79 146.49, 148.25 61.02, 201.76 0.73 M-0.99 238.37 C63.88 161.06, 129.7 85.72, 207.99 -1.22 M0.19 237.95 C67.29 161.32, 134.01 85.79, 207.12 -0.33 M-0.78 245.06 C67.29 165.89, 135.39 88.07, 210.65 -1.29 M0.59 244.37 C57.09 181, 113.84 115.06, 212.6 0.14 M2.19 246.64 C78.35 161.34, 153.11 74.95, 215.09 3.22 M2.79 247.16 C52.06 192.22, 98.89 137.45, 214.93 2.43 M8.66 246.2 C52.2 196.67, 96.82 145.41, 214.73 7.99 M8.28 246.22 C67.26 178.48, 124.79 111.39, 214.75 7.73 M14.41 247.77 C89.58 156.93, 166.27 70.27, 214.33 13.85 M13.54 247.51 C61.42 191.13, 110.2 135.04, 214.98 14.34 M18.05 246.65 C75.69 178.09, 134.85 110.83, 215.37 20.75 M18.01 246.37 C78.29 176.91, 138.39 107.67, 216.07 21.02 M22.86 246.26 C91.7 169.41, 155.78 91.99, 215.4 27.87 M22.98 247.11 C83.3 176.82, 143.44 107.24, 215.41 27.2 M27.76 246.25 C101.77 164.23, 175.95 77.18, 216.39 33.16 M28.53 248.07 C70.49 197.73, 114.01 147.93, 215.92 32.56 M35.03 246.8 C87.78 183.76, 142.05 120.33, 214.49 38.66 M33.87 247.16 C104.85 168.08, 173.56 86.95, 215.92 39.21 M40.2 246.76 C88.01 194.98, 133.75 140.62, 214.7 44.23 M39.53 247.69 C103.05 175.13, 164.77 102.9, 214.62 45.27 M43.59 246.67 C107.79 173.92, 172.09 102.22, 214.52 52.09 M45.32 247.5 C83.35 204.41, 119.69 163.28, 216.02 50.69 M49.56 247.69 C103.84 186.73, 158.34 124.4, 215.41 58.48 M49.23 246.87 C116.33 173.2, 181.27 98.09, 215.37 56.91 M56.81 247.62 C117.85 174.55, 176.76 104.92, 215.61 63.16 M55.43 246.33 C111.6 179.7, 169.67 114.61, 215.96 63.71 M60.18 245.84 C110.32 193.64, 156.31 140.44, 215.61 68.3 M60.52 246.69 C99.05 202.9, 140 157.19, 215.39 69.14 M67.13 246.39 C104.84 200.92, 145.25 155.02, 213.92 75.39 M66.26 246.79 C123.33 180.42, 181.27 113.21, 214.47 76.32 M70.14 246.14 C103.63 211.78, 133.28 173.55, 216.3 79.7 M70.57 246.67 C109.33 203.97, 147.34 159.26, 214.83 81.28 M76.65 248 C106.69 211.53, 139.49 174.44, 214.32 88.51 M77.42 247.21 C114.66 203.37, 151.79 160.05, 214.72 87.5 M80.96 248.69 C133.74 187.43, 187.65 128.03, 215.14 94.03 M82.35 248.13 C127.24 192.84, 173.93 139.54, 216.49 92.65 M87.91 245.14 C138.36 188.95, 188.07 129.14, 216.78 99.08 M87.56 247.64 C140.56 188.14, 191.61 128.29, 215.43 100.52 M90.66 247.99 C119.4 213.93, 147.5 181.75, 216.45 108.03 M92.74 247.05 C122.41 214.9, 148.51 182.94, 214.46 107.03 M96.11 246.97 C137.29 200.59, 178.89 154.82, 214 111.85 M97.8 245.99 C137.49 201.17, 178.42 154.19, 214.79 112.41 M101.4 247.02 C126.1 217.16, 150.25 192.03, 215.41 116.78 M102.79 246.62 C131.03 214.52, 159.63 180.98, 214.71 118.51 M108.3 245.19 C131.15 220.08, 151.64 197.66, 214.52 121.93 M108.56 246.38 C142.34 209.47, 174 172.39, 215.75 124.03 M115.23 247.43 C151.39 205.21, 188.87 163.7, 217.04 132.05 M112.87 246.57 C150.52 205.95, 188.37 162.32, 214.69 131.19 M119.71 245.26 C150.59 209.44, 184.99 172.51, 214.43 134.97 M119.08 247 C143.97 216.68, 171.29 185.01, 215.63 137.08 M122.43 248.6 C152.61 210.54, 184.62 177.31, 215.16 142.65 M124.19 246.6 C152.42 214.46, 180.76 180.07, 215.34 142.54 M129.68 246.48 C149.66 224.63, 171.4 199.86, 215.97 148.2 M129.55 246.07 C152.31 220.45, 175.54 194.9, 214.66 149.06 M133.4 247.8 C162.93 215.76, 187.54 182.66, 215.74 155.29 M134.91 246.47 C155.23 221.83, 177 198.15, 216.53 154.11 M141 246.81 C161.82 221.33, 183.16 198.21, 215.5 159.01 M140.45 246.64 C161.27 223.28, 181.78 199.85, 216.03 159.81 M146.66 248.15 C161.47 228.87, 180.3 208.62, 216.22 167.29 M146.13 248.01 C170.96 216.99, 196.38 188.99, 214.43 166.26 M150.58 247.81 C173.76 218.98, 196.91 194.02, 214.16 173.91 M151.15 247.56 C173.11 222.15, 195.11 196.53, 214.52 172.46 M156.86 246.66 C166.98 234.28, 180.53 217.69, 216.11 179.57 M155.88 247.11 C166.64 233.17, 179.73 219.03, 216.09 179.16 M161.48 247.18 C172.14 232.37, 185.28 217.09, 217.24 185.28 M162 248 C175.56 232.06, 189.32 214.02, 215.85 184.21 M166.79 246.21 C181.77 230.95, 196.45 213.81, 217.1 189.22 M167.12 247.7 C184.55 227.67, 199.56 208.42, 215.57 191.27 M173.53 247.72 C184.47 229.88, 201.69 212.91, 213.48 196.13 M170.94 246.45 C184.46 233.28, 197.23 219.97, 216.03 197.09 M179.33 247.55 C188.3 233.26, 198.37 220.49, 213.66 202.42 M177.79 247.82 C191.62 231.62, 205.16 214.22, 216.47 202.41 M182.69 246.14 C190.34 237.2, 198.75 228.46, 213.71 209.09 M182.84 247.44 C191.04 238.04, 198.83 229.6, 215.96 208.9 M189.52 245.32 C195.26 240.71, 201.03 233.48, 215.7 216 M188.71 247.53 C195.04 238.4, 202.65 228.96, 214.72 215.18 M193.07 249.01 C201.49 237.24, 211.51 227.91, 214.94 222.9 M193.53 247.59 C202.18 237.66, 209.29 229.31, 215.52 221.79 M200.5 248.02 C203.69 244.02, 207.37 239.85, 215.27 226.39 M199.67 246.97 C202.93 242.52, 207.64 237.02, 215.12 227.99 M204.74 248.62 C207.89 242.84, 211.95 239, 214.99 233.48 M203.76 247.53 C207.6 242.66, 211.56 238.34, 216.12 233.26 M208.55 246.52 C211.73 244.85, 213.93 242.32, 214.94 239.25 M209.38 246.66 C211.51 244.85, 212.64 242.72, 215.36 239.88" stroke="#82c91e" stroke-width="0.5" fill="none"></path><path d="M-0.92 1.61 C63 1.77, 123.5 1.1, 211.01 0.26 M-0.43 0.19 C53.48 0.6, 106.53 1.36, 211.96 0.09 M213.65 1.01 C212.46 74.07, 212.67 149.47, 211.36 245.59 M213.28 -0.61 C210.95 68.19, 211.12 136.27, 213.23 245.58 M214.29 245.77 C129.78 243.69, 46.7 244.59, 0.04 243.93 M212.09 245.34 C147.84 244.53, 84 244.48, -0.73 245.29 M0.55 243.62 C-1.24 192.71, -0.66 136.59, 1.15 -0.34 M-0.31 245.52 C-1.45 161.28, -1.33 77.51, 0.35 0.48" stroke="#000000" stroke-width="1" fill="none"></path></g><g stroke-linecap="round" transform="translate(535.5703125 109.37109375) rotate(0 102.53515625 123.904296875)"><path d="M0 0 C0 0, 0 0, 0 0 M0 0 C0 0, 0 0, 0 0 M-0.47 5.79 C0.7 4.04, 2.95 3.43, 5.64 0.08 M0.08 6.09 C0.91 5.09, 2.9 3.11, 4.94 0.22 M-1.14 12.67 C3.7 8.13, 6.5 4.99, 11.08 -0.34 M-0.26 12.68 C3.16 7.71, 7.37 3.92, 10.6 0.6 M0.37 17.04 C2.34 13.4, 8.81 9.8, 15.39 2.26 M0.15 18.27 C5.13 11.23, 11.34 4.48, 15.28 0.13 M0.21 22.98 C7.07 14.44, 15.04 6.7, 22.54 1.25 M1.09 24.67 C4.94 18.63, 9.76 13.04, 20.34 -0.43 M0.58 30.36 C6.61 20.23, 15.99 13.95, 27.7 -0.42 M-0.19 31.4 C7.53 21.34, 13.53 13.83, 27.16 -0.56 M-1.68 37.16 C11.58 25.38, 21.7 12.68, 33.69 1.04 M-0.74 36.48 C6.71 29.67, 14.3 19.94, 31.01 0.43 M1.41 43.11 C10.7 27.34, 25.31 15.05, 36.55 1.45 M0.66 42.24 C14.64 27.3, 27.43 10.1, 36.42 0.89 M1.69 49.21 C17.28 31.79, 31.74 13.11, 41.57 -0.14 M0.11 48.96 C17.28 29.85, 34.04 10.02, 43.02 0.25 M-1.71 53.69 C10.4 42.09, 18.81 32.09, 48.8 1.85 M-0.13 54.95 C10.33 42.21, 21.27 29.8, 46.98 0.36 M-0.95 59.33 C14.17 47.17, 26.36 28.84, 53.02 -1.27 M-0.32 59.99 C11.43 49.9, 22.45 36.45, 52.84 -1.13 M-0.1 65.38 C16.4 47.47, 32.88 29.25, 57.23 -1.14 M0.02 67.38 C13.97 50.8, 28.95 34.06, 58.88 0.65 M1.65 71.11 C18.25 47.98, 40.82 27.5, 64.71 -1.19 M0.74 73.63 C23.47 47.41, 44.78 20.17, 63.02 -0.92 M-1.26 79.32 C15.25 59.91, 35.63 40.54, 68.46 -1.31 M-0.29 80.06 C25.93 49.58, 50.49 21.27, 68.19 -0.47 M-1.38 84.28 C24.79 57.42, 48.74 28.58, 75.22 1.35 M0.09 84.89 C22.14 60.52, 42.35 37.04, 74.17 0.61 M-0.79 91.04 C19.59 70.2, 37.81 46.69, 78.99 -0.32 M-0.35 90.7 C16.37 72.49, 32.41 52.6, 79.03 -0.32 M0.31 99.41 C22.44 69.48, 49.04 41.41, 85 -0.22 M-0.01 98.47 C22.9 67.97, 48.68 40.37, 84.96 0.1 M0.27 103.44 C30.71 67.61, 64.3 28.63, 91.22 0.3 M-0.75 103.23 C24.3 77.01, 48.13 49.05, 89.62 0.73 M0.91 110.97 C31.77 73.26, 62.48 37.72, 96.36 -0.39 M0.69 109.72 C38.2 66.68, 75.72 22.62, 96.11 -0.83 M-1.26 115.56 C35.98 77.33, 67.84 34.54, 101.38 -0.87 M-0.01 116.48 C37.28 73.2, 74.17 31.16, 100.22 -0.76 M-1.47 123.8 C29.15 90.1, 59.97 56.16, 105.49 -1.51 M0.55 121.23 C30.7 87.78, 59.87 53, 106.42 0.33 M0.64 127.28 C37.44 82.22, 77.86 39.15, 111.62 -1.12 M-1.23 129 C42.11 80.04, 82.64 31.62, 111.15 0.73 M1.79 134.1 C33.6 95.21, 69.15 53.56, 117.81 -1.04 M0.65 133.75 C41.63 87.21, 82.12 41.3, 116.09 -0.18 M-0.14 140.38 C38.14 98.12, 78.41 51.32, 121.94 -1.6 M0.49 140 C39.26 97.71, 75.61 53.12, 122.8 -0.37 M1.2 146.22 C53.54 88.7, 102.92 30.1, 126.57 1.4 M0.11 146.96 C37.4 101.69, 74.06 59.62, 127.35 0.54 M-1.63 151.16 C48.27 93.67, 98.42 38.79, 134.05 0.57 M0.17 151.94 C31.79 115.26, 64.5 78.44, 131.71 -0.62 M0.4 157.55 C53.17 96.35, 107.06 34.64, 137.01 0.56 M-0.48 158.31 C39.09 111.09, 80.14 64.7, 136.65 0.55 M-0.04 162.93 C47.01 113.63, 89.76 60.81, 144.09 0.6 M-0.36 165.16 C52.84 104.5, 103.75 46, 143.99 0.08 M-0.68 170.68 C39.65 124.18, 80.05 79.06, 148.54 -1.08 M-0.56 171.55 C33.55 132.82, 66.76 94.76, 148.61 0.25 M-0.54 175.33 C43.71 126.51, 85.71 80.86, 153.61 1.48 M0.42 175.8 C48.55 119.41, 98.15 63, 153.01 -0.65 M0.73 183.4 C44.49 133.64, 86.64 84.59, 159.08 1.67 M0.33 182.55 C37.18 137.75, 77.46 92.82, 158.88 0.65 M-0.29 188.85 C38.31 144.43, 75.3 99.37, 165.53 -0.66 M-0.04 188.5 C50.19 131.64, 99.67 74.84, 164.5 -0.89 M-0.41 196.41 C32.98 154.37, 67.21 117.26, 168.26 0.7 M0 194.28 C40.01 149.46, 77.68 104.68, 170.16 0.22 M0.29 201.88 C64.08 127.61, 128.78 55.77, 174.39 0.36 M-0.43 201.16 C63.27 130.05, 125.77 56.52, 175.61 0.21 M-0.85 207.33 C55.21 145.72, 109.23 84.12, 180.36 1.43 M-0.29 206.97 C60.65 137.83, 121.5 68.43, 180.21 -0.11 M0.41 212.1 C49.73 157.31, 96.49 102, 186.03 0.86 M0.17 213.22 C47.05 159.44, 92.23 105.59, 185.44 -0.49 M0.02 220.92 C38.33 172.88, 77.31 129.74, 191.47 -0.33 M-0.09 219.28 C38.21 175.89, 76.25 133.01, 190.13 -0.34 M1.37 225.81 C55.84 160.28, 113.73 93.16, 195.12 0.68 M0.21 225.66 C41.19 178.37, 83.05 129.3, 196.19 -0.6 M0.14 230.59 C67.54 151.79, 137.23 71.75, 202.47 0.58 M0.07 231.42 C75.09 143.48, 151.25 54.38, 200.9 0.25 M-0.06 237.15 C54.94 171.88, 111.81 106.07, 206.23 0.53 M-0.16 237.2 C83.23 142.61, 165.25 48.76, 206.33 0.54 M0.06 243.92 C80.26 154.03, 158.83 66.28, 206.74 7.13 M0.74 243.53 C64.16 170.71, 128.74 98.31, 206.13 6.89 M0.73 248.64 C83.56 154.4, 164.71 63.55, 207.17 14.57 M1.23 249.35 C50.61 194.08, 99.37 138.77, 205.27 13.43 M5.21 249.37 C78.7 164.58, 150.15 83.5, 206.19 20.03 M6.19 248.9 C69.33 175.18, 132.94 101.98, 206.79 18.71 M12.44 250.11 C63 188.9, 116.97 130.54, 205.37 24.27 M12.34 248.77 C60.9 191.63, 110.15 134.32, 206.33 25.11 M18.14 249.6 C80.93 174.05, 145.31 99.18, 207.36 30.44 M16.35 248.37 C63.04 197.67, 107.12 147.03, 205.66 30.24 M23.21 247.4 C77.24 184.84, 132.94 120.6, 206.41 36.27 M22.02 248.95 C74.21 189.26, 125.58 130.75, 206.77 36.87 M27.71 248.12 C64.22 207.84, 100.61 166.89, 207.1 44.52 M28.04 248.71 C92.85 171.39, 160.67 93.86, 206.25 44.32 M32.18 247.04 C88.5 186.98, 144.26 124.36, 206.25 47.92 M33.57 248.37 C71.98 205.73, 110.64 160.61, 205.85 50.05 M37.58 249.47 C73.87 211.6, 106.82 170.72, 205.39 57.35 M38.11 249.16 C97.31 180.83, 156.07 111.82, 206.64 56.14 M43.24 250.01 C99.43 184.49, 155.16 120.24, 205.07 62.86 M44.26 249.33 C91.95 194.52, 141.01 138.21, 206.04 62.04 M50.2 248.9 C87.31 206.56, 122.09 165.08, 204.94 69.25 M48.02 249.64 C92.33 198.36, 136.17 147.47, 205.85 68.46 M55.6 247.34 C85.46 210.28, 118.22 171.83, 207.41 75.89 M54.4 248.47 C85.95 213.25, 115.49 177.96, 206.17 74.79 M59.59 248.01 C114.73 183.23, 170.11 119.72, 207.78 79.8 M59.48 249.11 C109.87 190.76, 161.43 132.48, 207.04 79.2 M66.48 249.98 C118.44 187.2, 169.12 128.97, 204.62 85.83 M64.41 248.04 C113.21 192.99, 161.42 139.96, 205.29 85.48 M71.33 248.74 C111.13 199.34, 155.11 150.81, 207.2 92.24 M69.16 249.03 C105.35 209.87, 139.7 169.32, 206.71 92.18 M74.34 248.8 C108.13 211.82, 139.22 176.38, 204.34 97.52 M74.76 247.77 C127.2 190.36, 179.12 130.27, 205.58 97.81 M78.64 249.81 C125.14 196.26, 170.72 145.65, 203.8 103.67 M80.7 248.21 C128.94 194.68, 177.02 137.57, 205.83 104.13 M87.16 248.35 C122.29 207.41, 159.5 165.45, 207.3 108.41 M86.33 248.51 C128.34 199.64, 170.72 151.65, 206.83 110.58 M91.38 249.58 C118.64 220.03, 139.72 195.18, 206.64 116.46 M90.6 248.24 C117.57 219.15, 142.71 188.84, 205.67 117.66 M95.51 250.36 C141.18 197.55, 184.61 149.59, 207.07 123.52 M95.81 247.78 C130.35 210.45, 163.24 172.51, 206.46 123 M102 250.62 C141.14 202.82, 180.68 158.86, 204.87 127.56 M101.04 249.71 C138.5 207.1, 175.62 164.32, 205.68 128.85 M107.57 248.49 C147.65 205.97, 182.36 162.79, 206.63 136.81 M107.98 248.13 C127.1 224.43, 147.76 203.18, 205.4 136.08 M112.64 247.65 C149.75 208.38, 185.24 167.2, 206.06 141.24 M112.34 248.11 C132.77 224.99, 154.68 198.95, 205.96 139.92 M116.75 249.27 C145.91 216.22, 178.92 178.12, 204.79 148.12 M117.04 249.77 C146.16 215.9, 174.76 182.7, 206.59 147.5 M123.29 247.51 C150.52 217.32, 176.8 182.15, 207.66 153.92 M122.89 247.9 C140.88 227.89, 158.99 206.97, 206.68 152.03 M128.31 249.08 C155.33 216.72, 179.64 186.09, 204.28 159.66 M127.23 249.61 C145.4 228.04, 163.94 208.24, 205.09 160.14 M131.84 249.16 C161.54 217.15, 189.8 186.28, 204.33 166.86 M133.14 248.43 C161.12 216.14, 189.67 185.33, 205.41 166.03 M139.41 250.71 C156.68 225.32, 176.01 204.21, 206.35 173.02 M138.86 249.74 C163.74 221.3, 189.48 190.83, 206.64 171.07 M146.05 247.68 C157.13 230.31, 173.78 214.59, 206.56 179.2 M143.61 248.05 C161.04 228.63, 176.01 209.64, 205.77 177.45 M149.75 248.3 C164.07 235.8, 177.14 219.17, 205.48 182.68 M148.99 248.46 C164.4 229.29, 180.73 210.46, 206.42 185.05 M155.54 250.29 C167.42 232.36, 183.6 215.48, 204.78 188.49 M154.86 247.98 C171.53 229.51, 186.85 210.91, 205.45 189.02 M160.9 248.14 C173.77 234.1, 187.28 217.29, 203.99 196.95 M160.72 248.97 C171.36 236.38, 181.77 224.12, 205.63 195.49 M163.82 248.33 C171.73 237.31, 181 227.85, 207.92 203.61 M165.54 248.44 C177.47 235.48, 187.74 223.03, 206.87 201.63 M172.29 248.62 C182.63 236.09, 195.91 219.92, 204.1 206.55 M171.21 249.46 C183.11 235.2, 194.48 219.99, 205.57 209.05 M176.27 249.26 C182.76 241.25, 187.82 234.54, 206.16 214.35 M176.35 248.53 C187.1 236.19, 197.3 223.29, 205.85 213.9 M181.24 248.27 C190.41 238.16, 199.89 227.74, 206.57 221.58 M181.7 249 C188.07 242.09, 192.63 234.7, 206.24 220.53 M188.15 248.67 C189.25 243.8, 196.02 237.36, 205.49 228.35 M186.04 248.34 C192.28 241.4, 198.84 234.91, 206.26 227.1 M190.96 249.74 C197.82 241.2, 203.9 238.05, 206.03 232.25 M191.49 249.63 C196.16 245.58, 199.14 241.57, 205.72 231.69 M196.88 249.63 C198.78 246.83, 201.46 243.33, 207.17 239.3 M197.44 248.72 C200.69 244.97, 203.03 241.63, 206.01 238.04 M202.43 248.57 C203.38 247.91, 204.57 246.08, 205.85 245.2 M202.29 248.7 C203.76 247.7, 204.79 245.94, 205.64 245.28" stroke="#fa5252" stroke-width="0.5" fill="none"></path><path d="M1.29 -1.24 C47.22 -0.26, 96.84 2.93, 204.96 0.11 M0.37 -0.89 C60.1 -0.64, 119.76 0.21, 205.8 -0.42 M206.43 1 C203.75 98.41, 204.86 195.2, 206.1 247.39 M205.17 -0.59 C206 69.24, 207.09 137.97, 204.69 247.7 M206.83 249.3 C131.9 247.99, 59.65 247.09, 0.1 247.46 M205.77 248.57 C135.21 249.17, 65.08 247.6, -0.81 248.08 M1.47 248.93 C3.05 177.77, 0.02 111.46, -0.11 1.39 M0.37 248.49 C-0.12 149.92, 0.64 54.03, -0.19 0.58" stroke="#000000" stroke-width="1" fill="none"></path></g><g transform="translate(48.390625 31.1171875) rotate(0 108.5 37.5)"><text x="0" y="18" font-family="Virgil, Segoe UI Emoji" font-size="20px" fill="#000000" text-anchor="start" style="white-space: pre;" direction="ltr"> Arweave Transaction</text><text x="0" y="43" font-family="Virgil, Segoe UI Emoji" font-size="20px" fill="#000000" text-anchor="start" style="white-space: pre;" direction="ltr"> ID: ......</text><text x="0" y="68" font-family="Virgil, Segoe UI Emoji" font-size="20px" fill="#000000" text-anchor="start" style="white-space: pre;" direction="ltr"></text></g><g transform="translate(333.1484375 122.1171875) rotate(0 64 75)"><text x="0" y="18" font-family="Virgil, Segoe UI Emoji" font-size="20px" fill="#000000" text-anchor="start" style="white-space: pre;" direction="ltr">Initial State</text><text x="0" y="43" font-family="Virgil, Segoe UI Emoji" font-size="20px" fill="#000000" text-anchor="start" style="white-space: pre;" direction="ltr"></text><text x="0" y="68" font-family="Virgil, Segoe UI Emoji" font-size="20px" fill="#000000" text-anchor="start" style="white-space: pre;" direction="ltr">{</text><text x="0" y="93" font-family="Virgil, Segoe UI Emoji" font-size="20px" fill="#000000" text-anchor="start" style="white-space: pre;" direction="ltr">  ...</text><text x="0" y="118" font-family="Virgil, Segoe UI Emoji" font-size="20px" fill="#000000" text-anchor="start" style="white-space: pre;" direction="ltr">}</text><text x="0" y="143" font-family="Virgil, Segoe UI Emoji" font-size="20px" fill="#000000" text-anchor="start" style="white-space: pre;" direction="ltr"></text></g><g transform="translate(557.26953125 121.1171875) rotate(0 59.5 112.5)"><text x="0" y="18" font-family="Virgil, Segoe UI Emoji" font-size="20px" fill="#000000" text-anchor="start" style="white-space: pre;" direction="ltr">SmartWeave</text><text x="0" y="43" font-family="Virgil, Segoe UI Emoji" font-size="20px" fill="#000000" text-anchor="start" style="white-space: pre;" direction="ltr">Contract</text><text x="0" y="68" font-family="Virgil, Segoe UI Emoji" font-size="20px" fill="#000000" text-anchor="start" style="white-space: pre;" direction="ltr"></text><text x="0" y="93" font-family="Virgil, Segoe UI Emoji" font-size="20px" fill="#000000" text-anchor="start" style="white-space: pre;" direction="ltr">balance() {</text><text x="0" y="118" font-family="Virgil, Segoe UI Emoji" font-size="20px" fill="#000000" text-anchor="start" style="white-space: pre;" direction="ltr">  ...</text><text x="0" y="143" font-family="Virgil, Segoe UI Emoji" font-size="20px" fill="#000000" text-anchor="start" style="white-space: pre;" direction="ltr">}</text><text x="0" y="168" font-family="Virgil, Segoe UI Emoji" font-size="20px" fill="#000000" text-anchor="start" style="white-space: pre;" direction="ltr">transfer() {</text><text x="0" y="193" font-family="Virgil, Segoe UI Emoji" font-size="20px" fill="#000000" text-anchor="start" style="white-space: pre;" direction="ltr">  ... </text><text x="0" y="218" font-family="Virgil, Segoe UI Emoji" font-size="20px" fill="#000000" text-anchor="start" style="white-space: pre;" direction="ltr">}</text></g></svg>