<svg version="1.1" xmlns="http://www.w3.org/2000/svg" viewBox="0 0 818.75390625 737.5078125" width="100%" height="737.5078125">
  <!-- svg-source:excalidraw -->
  
  <defs>
    <style>
      @font-face {
        font-family: "Virgil";
        src: url("https://excalidraw.com/Virgil.woff2");
      }
      @font-face {
        font-family: "Cascadia";
        src: url("https://excalidraw.com/Cascadia.woff2");
      }
    </style>
  </defs>
  <rect x="0" y="0" width="818.75390625" height="737.5078125" fill="#ffffff"></rect><g stroke-linecap="round" transform="translate(256.6328125 207.37890625) rotate(0 147 141.59765625)"><path d="M78.99 14.97 C90.43 6.34, 107.27 3.67, 122.32 1.36 C137.38 -0.95, 154.41 -1.24, 169.32 1.1 C184.23 3.43, 198.42 8.63, 211.75 15.37 C225.09 22.1, 238.47 31.44, 249.33 41.5 C260.2 51.56, 269.69 62.79, 276.96 75.74 C284.22 88.68, 290.42 104.68, 292.93 119.17 C295.45 133.66, 294.62 148.36, 292.07 162.68 C289.52 176.99, 284.28 192.16, 277.66 205.05 C271.04 217.94, 262.65 229.8, 252.33 240.02 C242.02 250.24, 229.28 259.55, 215.77 266.36 C202.26 273.16, 186.36 278.21, 171.28 280.85 C156.21 283.49, 140.22 284.38, 125.3 282.22 C110.39 280.06, 95.41 274.66, 81.82 267.91 C68.23 261.17, 54.49 251.99, 43.76 241.76 C33.02 231.52, 24.39 219.26, 17.43 206.5 C10.47 193.74, 4.57 179.36, 2.02 165.2 C-0.54 151.04, -0.13 135.9, 2.12 121.56 C4.37 107.22, 8.88 92.47, 15.51 79.17 C22.15 65.87, 30.03 52.82, 41.93 41.74 C53.83 30.66, 77.74 17.73, 86.92 12.71 C96.11 7.7, 96.17 9.49, 97.05 11.63 M121.94 1.38 C135.81 -3.22, 151.55 -0.67, 166.61 1.7 C181.66 4.07, 198.66 9.3, 212.28 15.62 C225.9 21.94, 237.78 29.53, 248.34 39.63 C258.89 49.73, 268.2 63.51, 275.6 76.22 C283 88.93, 289.83 101.96, 292.71 115.88 C295.59 129.8, 294.99 144.93, 292.86 159.73 C290.73 174.53, 286.57 191.44, 279.92 204.67 C273.26 217.89, 263.59 228.69, 252.94 239.08 C242.28 249.46, 229.58 260.21, 216 266.97 C202.43 273.73, 186.37 277.02, 171.47 279.62 C156.57 282.23, 141.24 284.18, 126.59 282.61 C111.94 281.03, 96.98 276.77, 83.57 270.17 C70.17 263.57, 56.98 253.13, 46.15 243.01 C35.33 232.89, 25.74 222.13, 18.64 209.45 C11.53 196.76, 6.51 181.67, 3.52 166.92 C0.54 152.16, -1.09 135.18, 0.72 120.92 C2.54 106.65, 7.78 94.44, 14.41 81.35 C21.04 68.26, 30.1 52.98, 40.48 42.39 C50.86 31.81, 63.04 24.4, 76.68 17.83 C90.32 11.27, 114.75 5.14, 122.33 2.99 C129.92 0.84, 121.87 2.9, 122.2 4.92" stroke="#364fc7" stroke-width="1" fill="none"></path></g><g stroke-linecap="round" transform="translate(15.38671875 13.29296875) rotate(0 77.5 53.5)"><path d="M-1.17 -1.99 C40.12 -1.71, 77.62 -1.1, 156.82 0.13 M-0.72 -0.63 C55.48 0.01, 110.94 0.03, 155.66 0.59 M154.1 -1.1 C156.82 43.2, 154.34 85.66, 153.29 107.77 M154.46 -0.4 C154.73 23.87, 154.75 47.81, 154.11 107.44 M153.87 108.26 C117.68 107.83, 80.02 106.06, 0.83 106.78 M154.61 106.88 C122.86 105.28, 93.13 105.62, -0.46 107.6 M0.41 108.14 C1.78 80.99, 1.77 52.14, -0.22 -0.67 M0.19 106.68 C-0.44 68.99, -0.79 31.06, -0.51 0.15" stroke="#364fc7" stroke-width="1" fill="none"></path></g><g transform="translate(20.38671875 41.79296875) rotate(0 72.5 25)"><text x="72.5" y="18" font-family="Virgil, Segoe UI Emoji" font-size="20px" fill="#364fc7" text-anchor="middle" style="white-space: pre;" direction="ltr">Atomic</text><text x="72.5" y="43" font-family="Virgil, Segoe UI Emoji" font-size="20px" fill="#364fc7" text-anchor="middle" style="white-space: pre;" direction="ltr">NFTs</text></g><g stroke-linecap="round" transform="translate(633.12109375 10) rotate(0 80.5 60.330078125)"><path d="M-1.02 0.29 C48.75 0.47, 96.87 -1.95, 159.21 -0.47 M-0.09 0.05 C55.23 0.29, 110.03 0.78, 160.69 0.18 M160.09 0.76 C162.35 46.6, 159.03 95.03, 162.17 119.79 M161.78 0.39 C160.53 29.2, 160.1 58.06, 160.58 121.24 M161.14 119.92 C126.06 122.72, 86.87 119.67, -0.77 118.94 M161.53 120.41 C126.47 119.97, 91.58 119.33, 0.79 120.48 M1.86 118.69 C2.86 74.14, 0.4 28.08, -0.47 1.16 M-0.28 121.29 C-0.64 94.51, 0.26 66.05, 0.32 -0.47" stroke="#364fc7" stroke-width="1" fill="none"></path></g><g transform="translate(638.12109375 57.830078125) rotate(0 75.5 12.5)"><text x="75.5" y="18" font-family="Virgil, Segoe UI Emoji" font-size="20px" fill="#364fc7" text-anchor="middle" style="white-space: pre;" direction="ltr">PSTs</text></g><g stroke-linecap="round" transform="translate(10 595.70703125) rotate(0 85.501953125 65.900390625)"><path d="M0.49 1.04 C51.29 -0.62, 104.54 0.7, 170.75 -0.54 M-0.57 -0.46 C51.4 0.54, 104.51 0.75, 171.34 0.33 M172.59 0.73 C171 25.26, 170.13 53.25, 170.18 130.96 M171.63 -0.57 C172.74 41.22, 172.02 84.97, 170.11 131.7 M172.17 131.18 C123.07 131.62, 72.98 129.37, 0.53 133.41 M171.52 132.28 C113 130.48, 54.52 131.51, 0.78 132.62 M-0.01 132.08 C0.19 104.97, -1.09 75.73, -1.88 -1.29 M-0.06 132.7 C0.89 97.96, -0.55 64.88, 0.54 -0.36" stroke="#364fc7" stroke-width="1" fill="none"></path></g><g transform="translate(15 649.107421875) rotate(0 80.5 12.5)"><text x="80.5" y="18" font-family="Virgil, Segoe UI Emoji" font-size="20px" fill="#364fc7" text-anchor="middle" style="white-space: pre;" direction="ltr">Permaweb</text></g><g stroke-linecap="round" transform="translate(653.515625 593.13671875) rotate(0 77.619140625 67.16796875)"><path d="M0.9 -1.62 C49.02 -2.14, 95.25 -1.97, 154.45 -0.48 M-0.07 -0.37 C40.92 -1.02, 83.16 -1.31, 155.17 0.52 M157.17 1.76 C153.37 30, 154.99 57.91, 153.57 134.67 M155.57 -0.97 C156.82 33.95, 156.81 68.11, 154.69 133.78 M153.56 136.23 C105.3 137.1, 58.78 136, -1.37 133.71 M155.88 134.78 C98.25 134.84, 41.39 134.18, 0.44 134.63 M0.89 134.87 C0.44 103.15, -1.68 71.68, 0.59 -1.89 M-0.68 134.51 C-0.38 95.65, -0.02 58.09, 0.64 -0.39" stroke="#364fc7" stroke-width="1" fill="none"></path></g><g transform="translate(658.515625 647.8046875) rotate(0 72.5 12.5)"><text x="72.5" y="18" font-family="Virgil, Segoe UI Emoji" font-size="20px" fill="#364fc7" text-anchor="middle" style="white-space: pre;" direction="ltr">SmartWeave</text></g><g transform="translate(261.6328125 336.4765625) rotate(0 142 12.5)"><text x="142" y="18" font-family="Virgil, Segoe UI Emoji" font-size="20px" fill="#364fc7" text-anchor="middle" style="white-space: pre;" direction="ltr">DataFi</text></g><g stroke-linecap="round"><g transform="translate(170.40625 126.34375) rotate(0 59.2691845131107 60.86571050364523)"><path d="M1 -0.51 C20.59 19.73, 98.84 101.85, 118.47 122.4 M0.07 -1.83 C19.39 18.48, 97.68 102.6, 117.33 123.56" stroke="#364fc7" stroke-width="1" fill="none"></path></g><g transform="translate(170.40625 126.34375) rotate(0 59.2691845131107 60.86571050364523)"><path d="M89.74 109.36 C99.54 114.79, 110.26 118.31, 115.99 124.73 M90.59 109.54 C101.86 114.8, 112.01 120.72, 118.09 124.23" stroke="#364fc7" stroke-width="1" fill="none"></path></g><g transform="translate(170.40625 126.34375) rotate(0 59.2691845131107 60.86571050364523)"><path d="M104.74 95.35 C109.01 106.18, 114.09 114.96, 115.99 124.73 M105.59 95.53 C110.86 106.4, 115.14 117.8, 118.09 124.23" stroke="#364fc7" stroke-width="1" fill="none"></path></g></g><g stroke-linecap="round"><g transform="translate(631.16796875 128.90234375) rotate(0 -60.78494475446644 55.366132151708)"><path d="M1.17 -0.54 C-19.47 18.01, -102.2 92.84, -122.74 111.28 M0.32 1.79 C-20.06 20, -100.02 91.32, -120.59 109.56" stroke="#364fc7" stroke-width="1" fill="none"></path></g><g transform="translate(631.16796875 128.90234375) rotate(0 -60.78494475446644 55.366132151708)"><path d="M-107.25 81.36 C-110.64 92.93, -118.19 105.02, -118.67 111.31 M-106.72 83.74 C-110.94 91.07, -114.63 96.68, -121.22 110.25" stroke="#364fc7" stroke-width="1" fill="none"></path></g><g transform="translate(631.16796875 128.90234375) rotate(0 -60.78494475446644 55.366132151708)"><path d="M-93.61 96.7 C-102.34 102.4, -115.22 108.48, -118.67 111.31 M-93.08 99.07 C-100.99 102.19, -108.4 103.6, -121.22 110.25" stroke="#364fc7" stroke-width="1" fill="none"></path></g></g><g stroke-linecap="round"><g transform="translate(184.1875 592.4296875) rotate(0 60.76498577645049 -59.852834958638994)"><path d="M0.18 -1.15 C20.43 -20.93, 100.14 -99.13, 120.5 -118.92 M-1.19 0.86 C19.52 -19.22, 102.18 -100.65, 122.72 -120.57" stroke="#364fc7" stroke-width="1" fill="none"></path></g><g transform="translate(184.1875 592.4296875) rotate(0 60.76498577645049 -59.852834958638994)"><path d="M107.83 -95.1 C114.09 -97.83, 115.21 -104.37, 122.54 -119.4 M109.46 -93.26 C113.62 -99, 116.7 -105.44, 123.44 -121.15" stroke="#364fc7" stroke-width="1" fill="none"></path></g><g transform="translate(184.1875 592.4296875) rotate(0 60.76498577645049 -59.852834958638994)"><path d="M93.48 -109.76 C102.79 -109.37, 106.99 -112.76, 122.54 -119.4 M95.11 -107.93 C102.41 -110.29, 108.72 -113.42, 123.44 -121.15" stroke="#364fc7" stroke-width="1" fill="none"></path></g></g><g stroke-linecap="round"><g transform="translate(661.92578125 595.71875) rotate(0 -71.81773066101601 -70.58971688114104)"><path d="M0.96 0.52 C-23.02 -23.17, -119.52 -118.12, -143.75 -141.7 M0 -0.26 C-24.13 -23.78, -120.36 -116.36, -144.59 -140.13" stroke="#364fc7" stroke-width="1" fill="none"></path></g><g transform="translate(661.92578125 595.71875) rotate(0 -71.81773066101601 -70.58971688114104)"><path d="M-116.35 -127.54 C-125.68 -132.25, -132.97 -135.36, -143.62 -139.55 M-116.67 -127.8 C-123.68 -129.94, -130.01 -133.81, -145.06 -139.87" stroke="#364fc7" stroke-width="1" fill="none"></path></g><g transform="translate(661.92578125 595.71875) rotate(0 -71.81773066101601 -70.58971688114104)"><path d="M-130.64 -112.81 C-135.58 -122.21, -138.43 -129.91, -143.62 -139.55 M-130.96 -113.07 C-134.82 -118.37, -138.02 -125.46, -145.06 -139.87" stroke="#364fc7" stroke-width="1" fill="none"></path></g></g></svg>